<?xml version="1.0" encoding="UTF-8" standalone="no"?><!-- Generator: Gravit.io --><svg xmlns="http://www.w3.org/2000/svg" xmlns:xlink="http://www.w3.org/1999/xlink" style="isolation:isolate" viewBox="0 0 200 200" width="200pt" height="200pt"><defs><clipPath id="_clipPath_Lot9qM8ozuocOG9fnDXqYzmeJEr4CI5p"><rect width="200" height="200"/></clipPath></defs><g clip-path="url(#_clipPath_Lot9qM8ozuocOG9fnDXqYzmeJEr4CI5p)"><mask id="_mask_4QPyn96IRSSNaUGrfRU8OjXhaXjWIGzs"><circle vector-effect="non-scaling-stroke" cx="97.75971624365998" cy="97.85194672131" r="96.49999999999999" fill="white" stroke="none"/></mask><circle vector-effect="non-scaling-stroke" cx="97.75971624365998" cy="97.85194672131" r="96.49999999999999" fill="rgb(235,235,235)"/><circle vector-effect="non-scaling-stroke" cx="97.75971624365998" cy="97.85194672131" r="96.49999999999999" fill="rgb(235,235,235)" mask="url(#_mask_4QPyn96IRSSNaUGrfRU8OjXhaXjWIGzs)" stroke-width="22" stroke="rgb(0,0,0)" stroke-linejoin="miter" stroke-linecap="square" stroke-miterlimit="3"/><path d=" M 97.15 108.904 L 97.15 128.326 C 95.392 123.422 89.533 114.17 76.519 107.973 Q 60.769 100.473 49.519 99.973 Q 61.797 124.817 71.519 128.973 C 80.145 132.66 94.116 131.359 97.15 130.898 L 97.15 152.853 C 95.392 147.949 89.533 138.697 76.519 132.5 Q 60.769 125 49.519 124.5 Q 61.797 149.344 71.519 153.5 C 80.145 157.187 94.116 155.886 97.15 155.425 L 97.15 163.5 L 98.719 163.5 L 98.719 155.475 C 102.355 155.969 115.67 157.061 124 153.5 Q 133.722 149.344 146 124.5 Q 134.75 125 119 132.5 C 106.745 138.336 100.834 146.881 98.719 151.953 L 98.719 130.948 C 102.355 131.442 115.67 132.534 124 128.973 Q 133.722 124.817 146 99.973 Q 134.75 100.473 119 107.973 C 106.745 113.809 100.834 122.354 98.719 127.426 L 98.719 108.936 Q 120.959 110.697 131.969 97.852 Q 143.219 84.727 143.969 79.852 Q 131.219 81.352 124.969 83.852 Q 109.851 89.899 98.719 107.295 L 98.719 93.865 Q 110.961 85.289 111.9 66.5 Q 112.875 47 98.721 36.5 Q 85.875 48.125 85.9 66.5 Q 85.925 84.384 97.15 93.979 L 97.15 107.895 Q 85.896 90.003 70.519 83.852 Q 64.269 81.352 51.519 79.852 Q 52.269 84.727 63.519 97.852 Q 74.624 110.807 97.15 108.904 Z " fill="rgb(0,0,0)"/><line x1="23" y1="146" x2="47" y2="134" vector-effect="non-scaling-stroke" stroke-width="11" stroke="rgb(0,0,0)" stroke-linejoin="miter" stroke-linecap="square" stroke-miterlimit="3"/><g clip-path="url(#_clipPath_44Hwdf230gNgtPv7BoYvwRG05rTzQmNj)"><text transform="matrix(1,0,0,1,92.01,68.141)" style="font-family:'Open Sans';font-weight:700;font-size:20px;font-style:normal;fill:#000000;stroke:none;">GLUTEN</text></g><defs><clipPath id="_clipPath_44Hwdf230gNgtPv7BoYvwRG05rTzQmNj"><rect x="0" y="0" width="81.981" height="27.236" transform="matrix(1,0,0,1,59.01,13.764)"/></clipPath></defs><g clip-path="url(#_clipPath_oq9ZRrQEBWzL6XasZFuyY59w1gaDOkGL)"><text transform="matrix(1,0,0,1,73.144,179.377)" style="font-family:'Open Sans';font-weight:700;font-size:20px;font-style:normal;fill:#000000;stroke:none;">FREE</text></g><defs><clipPath id="_clipPath_oq9ZRrQEBWzL6XasZFuyY59w1gaDOkGL"><rect x="0" y="0" width="49.231" height="27.236" transform="matrix(1,0,0,1,73.144,158)"/></clipPath></defs><path d=" M 186.088 73.21 L 140.628 94.316 C 138.626 95.245 138.128 94.607 139.517 92.891 Q 145.5 85.5 146 79.852 Q 159.03 73.173 179.387 62.739 L 186.088 73.21 Z " fill="rgb(0,0,0)"/></g></svg>