<?xml version="1.0" encoding="UTF-8" standalone="no"?><!-- Generator: Gravit.io --><svg xmlns="http://www.w3.org/2000/svg" xmlns:xlink="http://www.w3.org/1999/xlink" style="isolation:isolate" viewBox="0 0 200 200" width="200pt" height="200pt"><defs><clipPath id="_clipPath_YDbh0A6bREPDvtlNofgzWM91oTYg0ftF"><rect width="200" height="200"/></clipPath></defs><g clip-path="url(#_clipPath_YDbh0A6bREPDvtlNofgzWM91oTYg0ftF)"><mask id="_mask_JVo7kEDQuwet9s6wlOArwwpaIiNzaYmB"><circle vector-effect="non-scaling-stroke" cx="97.75971624365998" cy="97.85194672131" r="96.49999999999999" fill="white" stroke="none"/></mask><circle vector-effect="non-scaling-stroke" cx="97.75971624365998" cy="97.85194672131" r="96.49999999999999" fill="rgb(235,235,235)"/><circle vector-effect="non-scaling-stroke" cx="97.75971624365998" cy="97.85194672131" r="96.49999999999999" fill="rgb(235,235,235)" mask="url(#_mask_JVo7kEDQuwet9s6wlOArwwpaIiNzaYmB)" stroke-width="22" stroke="rgb(0,0,0)" stroke-linejoin="miter" stroke-linecap="square" stroke-miterlimit="3"/><g clip-path="url(#_clipPath_2pDcFv1F0zFrTdLUN53QF3StevmTKAIM)"><text transform="matrix(1,0,0,1,44.396,55.141)" style="font-family:'Open Sans';font-weight:700;font-size:20px;font-style:normal;fill:#000000;stroke:none;">Vegetarian</text></g><defs><clipPath id="_clipPath_2pDcFv1F0zFrTdLUN53QF3StevmTKAIM"><rect x="0" y="0" width="113.358" height="27.236" transform="matrix(1,0,0,1,44.396,33.764)"/></clipPath></defs><path d=" M 63.571 131.93 C 68.695 135.508 74.632 137.679 78 138 C 85 138.667 104.483 138.638 119.075 122 Q 133.667 105.362 138.943 61 Q 136.417 68.561 124.075 76 C 111.732 83.439 109.667 75.333 95 78 C 80.333 80.667 55.742 98 54.075 116 C 53.544 121.73 56.953 126.639 61.494 130.36 Q 69.172 116.392 77 109 C 85.552 100.925 97.742 96.667 101.075 96 Q 105.573 95.022 111 94 Q 100 96 93 100 C 74 109.667 68.186 123.222 64.075 131 Q 63.815 131.492 63.571 131.93 Z " fill-rule="evenodd" fill="rgb(0,0,0)"/><line x1="201" y1="237" x2="234" y2="240" vector-effect="non-scaling-stroke" stroke-width="7" stroke="rgb(0,0,0)" stroke-linejoin="miter" stroke-linecap="square" stroke-miterlimit="3"/></g></svg>